<?xml version="1.0" encoding="utf-8"?>
<svg version="1.1" id="Layer_1" xmlns="http://www.w3.org/2000/svg" xmlns:xlink="http://www.w3.org/1999/xlink" width="1130" height="277" viewBox="0 0 1130 277"  xml:space="preserve">
<g fill="#F5A6C8">
	<polygon points="1.7,272 31.2,272 31.2,224.2 69.8,224.2 69.8,197.2 31.2,197.2 31.2,177.7 74.9,177.7 74.9,152 
		1.7,152 "/>
	<path d="M152.3,242.5c-9.8,0-18.5-3.6-25.4-10.3l-4.4,4.4c8.2,8,18.5,12.1,29.8,12.1c11.6,0,22.1-4.4,30.3-12.6
		l-4.4-4.4C171.3,238.9,162.3,242.5,152.3,242.5"/>
	<path d="M113.7,214.4c-2.8,0-5.1,2.3-5.1,5.4c0,2.8,2.3,5.4,5.1,5.4s5.4-2.3,5.4-5.4
		C118.8,216.8,116.5,214.4,113.7,214.4"/>
	<path d="M185.9,219.8c0,2.8,2.3,5.4,5.4,5.4c2.8,0,5.4-2.3,5.4-5.4c0-2.8-2.3-5.4-5.4-5.4
		C188.2,214.4,185.9,216.8,185.9,219.8"/>
	<path d="M152.5,268.2c-31.1,0-56.3-25.2-56.3-56.3s25.2-56.3,56.3-56.3s56.3,25.2,56.3,56.3
		C208.5,243,183.4,268.2,152.5,268.2 M152.5,148.4c-34.7,0-63.2,28.3-63.5,63v0.8c0.3,35,28.5,63.2,63.5,63.2
		c34.7,0,63.2-28.3,63.5-63v-0.8C215.5,176.7,187.2,148.4,152.5,148.4"/>
	<polygon points="191.8,186.4 184.9,208.3 179.5,208.3 175.4,195.2 171.5,208.3 166.1,208.3 159.2,186.4 165.1,186.4 
		169,199.8 172.8,186.4 178.2,186.4 182.1,200.1 185.7,186.4 "/>
	<polygon points="148.7,186.4 141.7,208.3 136.3,208.3 132.2,195.2 128.4,208.3 123,208.3 116,186.4 121.9,186.4 
		125.8,199.8 129.6,186.4 135,186.4 138.9,200.1 142.5,186.4 "/>
	<path d="M323.7,272L299,227.6c6.2-3.6,11.3-8.2,14.9-14.4c3.6-5.9,5.4-12.6,5.4-19.8c0-12.1-4.1-21.8-12.3-29.8
		c-8.2-7.7-18.5-11.8-30.8-11.8h-46.3v120h29v-38.6H270l20.8,38.8C290.8,272,323.7,272,323.7,272z M275.9,180.3
		c3.9,0,6.9,1.3,9.3,3.9c2.3,2.6,3.6,5.7,3.6,9.8c0,4.1-1.3,7.2-3.6,9.8c-2.3,2.6-5.4,3.6-9.3,3.6h-17v-27H275.9z"/>
	<path d="M715.6,123.2l-24.7-44.5c6.2-3.6,11.3-8.2,14.9-14.4c3.6-5.9,5.4-12.6,5.4-19.8c0-12.1-4.1-21.8-12.3-29.8
		C690.7,7,680.4,2.9,668.1,2.9h-46.3v120.3h29V84.4h11.1l20.8,38.8H715.6z M667.5,31.5c3.9,0,6.9,1.3,9.3,3.9s3.6,5.7,3.6,9.8
		s-1.3,7.2-3.6,9.8s-5.4,3.6-9.3,3.6h-17v-27H667.5z"/>
	<path d="M81.3,114.5c8.2-6.4,12.3-15.4,12.3-27c0-5.9-1-10.8-3.1-15.2c-2.1-4.4-5.1-7.7-9.3-10.5
		c-4.1-2.8-8-4.6-11.6-5.9s-8-2.8-13.6-4.9c-8-2.3-13.4-4.4-15.9-6.2c-2.8-1.8-4.1-4.1-4.1-6.7c0-2.3,1-4.1,2.8-5.7
		c1.8-1.5,4.6-2.3,8.2-2.3c8.5,0,14.6,4.4,18.2,13.1l25.2-14.6c-4.1-8.7-9.8-15.4-17.5-20S56.9,1.6,46.9,1.6c-11.6,0-21.3,3.3-29,10
		S6.3,27.1,6.3,37.9c0,10,3.1,18,9.5,23.6c6.2,5.7,14.6,10,25.4,13.1c7.5,2.3,12.6,3.9,14.6,4.6c5.4,2.1,8,4.9,8,8.2
		c0,5.1-4.6,7.7-13.6,7.7c-11.1,0-18.8-5.1-23.1-15.7L1.4,94.4c3.3,9,9,15.9,17,21.3c8.2,5.1,18.5,8,30.8,8
		C62.3,124.2,73.1,120.9,81.3,114.5"/>
	<polygon points="166.1,61.3 204.4,2.9 170,2.9 137.4,53.6 137.4,2.9 107.5,2.9 107.5,123.2 137.4,123.2 137.4,69.2 
		171.8,123.2 206,123.2 "/>
	<polygon points="729.7,123.2 802.5,123.2 802.5,97.3 759.3,97.3 759.3,75.1 797.3,75.1 797.3,48.7 759.3,48.7 
		759.3,29.1 802.5,29.1 802.5,2.9 729.7,2.9 "/>
	<path d="M555.7,1.9h-9.3l-54.7,122.3h31.1l5.7-13.1h45.2l5.7,13.1h31.1L555.7,1.9z M538.8,87l12.6-29.6L564,87H538.8z"
		/>
	<rect x="217.3" y="2.9" width="29.6" height="120"/>
	<polygon points="337,2.9 337,65.4 273.6,2.9 263.8,2.9 263.8,123.2 293.1,123.2 293.1,60.8 356.3,123.2 366.1,123.2 
		366.1,2.9 "/>
	<path d="M466.1,84.7c-5.1,7.5-14.1,11.8-24.9,11.8c-19.5,0-32.6-13.4-32.6-33.4s13.1-33.4,32.6-33.4
		c10.5,0,19.5,4.4,24.9,12.1l1.8,2.6l24.4-14.1l-2.1-2.8c-10.8-15.7-29-25.2-49.1-25.2c-35,0-61.2,26.2-61.2,60.9
		s26.2,61.2,61.2,61.2c20,0,38.6-9.5,49.1-25.2l2.1-2.8l-24.4-14.1L466.1,84.7z"/>
	<polygon points="691.4,210.6 729.5,152.2 695,152.2 662.4,202.9 662.4,152.2 632.6,152.2 632.6,272.3 662.4,272.3 
		662.4,218.6 696.8,272.3 731,272.3 "/>
	<polygon points="742.3,272.3 815.1,272.3 815.1,246.6 771.9,246.6 771.9,224.5 809.9,224.5 809.9,198 771.9,198 
		771.9,178.5 815.1,178.5 815.1,152.2 742.3,152.2 "/>
	<path d="M916.8,210.3L896,198.3c-3.9,8.7-10.3,14.6-22.1,14.6h-1.8c-11.8,0-18.5-5.9-22.1-14.6l-20.8,12.1
		c5.9,15.7,20,26.2,42.4,26.2c1,0,1.8,0,2.8,0l0,0c7.5,0,14.1-1.3,20-3.6c0.3,0,0.3-0.3,0.5-0.3c0.8-0.3,1.3-0.5,1.8-0.8
		c0.5-0.3,1.3-0.5,1.8-0.8c0.5-0.3,0.8-0.5,1.3-0.8c0.5-0.3,0.8-0.5,1.3-0.8C908.4,225.2,913.7,218.6,916.8,210.3"/>
	<path d="M960.5,152.2H931V225c0,26.5,19,47.3,45.2,47.3c26.2,0,45.2-21.1,45.2-47.3v-72.7h-29.6v74
		c0,8.7-6.9,15.7-15.7,15.7c-8.7,0-15.7-6.9-15.7-15.7V152.2z"/>
	<path d="M1065.1,178.7h19.5c9.5,0,17.2,7.7,17.2,17.2c0,9.5-7.7,17.2-17.2,17.2h-19.5V178.7z M1035.8,272.3h29.6v-31.9
		h19.8c23.9,0,43.4-19.8,43.4-43.9c0-24.4-19.8-44.2-44.2-44.2h-48.6V272.3z"/>
	<path d="M567.8,152.2h-9.3l-53.7,120h30.6l5.4-13.1h44.5l5.4,13.1h30.6L567.8,152.2z M550.9,235.8l12.3-29l12.3,29
		H550.9z"/>
	<polygon points="484,152.2 433.9,201.6 383.8,152.2 373.8,152.2 373.8,272.3 403.1,272.3 403.1,209.8 433.9,240.4 
		464.5,209.8 464.5,272.3 493.8,272.3 493.8,152.2 "/>
</g>
</svg>
