<?xml version="1.0" encoding="utf-8"?>
<svg version="1.1" xmlns="http://www.w3.org/2000/svg" xmlns:xlink="http://www.w3.org/1999/xlink" width="172" height="22" viewBox="0 0 172 22" xml:space="preserve">
	<polygon points="88,0.9 83,0.9 83,21.1 96.1,21.1 96.1,16.5 88,16.5"/>
	<rect x="70.2" y="0.9" width="5" height="20.2"/>
	<path d="M14.9,10.6c1.1-1,1.8-2.3,1.8-4c0-3.5-2.9-5.8-6.4-5.8h-9v20.2h9.5c3.6,0,6.5-2.3,6.5-5.9C17.4,13.1,16.4,11.5,14.9,10.6
		z M12,7c0,1-0.7,1.8-1.8,1.8H6.3V5.2h3.9C11.3,5.2,12,5.9,12,7z M10.8,16.7H6.3v-3.9h4.5c1.2,0,1.9,0.8,1.9,1.9
		C12.7,15.9,11.9,16.7,10.8,16.7z"/>
	<path d="M110.6,0.9H109l-9,20.2h5.1l0.9-2.2h7.5l0.9,2.2h5.1L110.6,0.9z M107.7,14.9l2.1-4.9l2.1,4.9H107.7z"/>
	<path d="M31.4,0.9h-1.5l-9,20.2H26l0.9-2.2h7.5l0.9,2.2h5.1L31.4,0.9z M28.6,14.9l2.1-4.9l2.1,4.9H28.6z"/>
	<polygon points="57.5,0.9 57.5,11.4 46.9,0.9 45.2,0.9 45.2,21.1 50.1,21.1 50.1,10.6 60.7,21.1 62.4,21.1 62.4,0.9"/>
	<path d="M142.8,14.6c-0.9,1.3-2.4,2-4.2,2c-3.3,0-5.5-2.3-5.5-5.6c0-3.4,2.2-5.6,5.5-5.6c1.8,0,3.3,0.7,4.2,2l0.3,0.4l4.1-2.4
	l-0.3-0.5c-1.8-2.6-4.9-4.2-8.3-4.2c-5.9,0-10.3,4.4-10.3,10.3c0,5.9,4.4,10.3,10.3,10.3c3.4,0,6.5-1.6,8.3-4.2l0.3-0.5l-4.1-2.4
	L142.8,14.6z"/>
	<path d="M160.4,0.7c-5.8,0-10.3,4.5-10.3,10.3c0,5.8,4.5,10.3,10.3,10.3c5.8,0,10.3-4.5,10.3-10.3C170.7,5.2,166.1,0.7,160.4,0.7z
	 M165.9,11c0,3.3-2.3,5.6-5.5,5.6c-3.2,0-5.5-2.4-5.5-5.6c0-3.3,2.3-5.6,5.5-5.6C163.6,5.4,165.9,7.7,165.9,11z"/>
</svg>
