<svg width="104" height="43" viewBox="0 0 104 43" fill="none" xmlns="http://www.w3.org/2000/svg">
<path d="M55.7093 8.98478C58.0784 9.41444 60.3779 7.80322 60.8308 5.33266C61.2489 2.89791 59.6811 0.534755 57.2771 0.0692866C54.9079 -0.360376 52.6084 1.25086 52.1555 3.72143C51.7026 6.19199 53.3401 8.55512 55.7093 8.98478Z" fill="#FAC15A"/>
<path d="M26.7228 1.17969C13.6924 2.32546 3.10082 4.76022 0 5.54793V13.4967C1.53299 12.9238 5.19127 11.599 9.5812 10.4891L9.7554 10.4533V30.7906H17.6991V8.69879L17.8036 8.66299C21.2877 8.0543 23.9704 7.66043 26.7228 7.37399V1.17969Z" fill="#FAC15A"/>
<path d="M41.8086 30.7543H49.5432C49.5432 30.7543 51.7382 25.6699 50.9717 19.9769C49.9613 12.5294 45.5714 9.27114 38.8123 8.66246C33.5513 8.08957 27.7678 9.41436 24.3185 11.2046L25.3986 16.826C27.9768 15.4654 32.2274 14.1048 37.2096 14.4987C42.0525 14.8926 43.4112 17.0409 43.5855 18.7953C41.2511 17.6854 37.8716 16.8976 34.3178 17.0409C29.684 17.2199 22.6113 18.7237 22.6113 24.4526C22.6113 29.3937 26.6877 31.1123 32.0183 31.1123C35.5372 31.1123 39.753 30.1098 43.028 27.8541C42.7841 28.8208 42.366 29.7876 41.8086 30.7543ZM35.363 25.5983C32.4364 25.5267 30.7989 25.0613 30.7989 23.8797C30.7989 22.6265 32.959 21.7314 36.1992 21.7314C38.9865 21.7314 41.7389 22.2326 43.8642 22.8771V22.9129L43.7945 23.7007C43.7945 23.7365 43.7945 23.7365 43.7945 23.7723C41.5647 24.8822 38.1155 25.6699 35.363 25.5983Z" fill="#FAC15A"/>
<path d="M82.4685 8.66246C77.2076 8.08957 71.424 9.41436 67.9748 11.2046L69.0548 16.826C71.633 15.4654 75.8836 14.1048 80.8658 14.4987C85.7087 14.8926 87.0675 17.0409 87.2417 18.7953C84.9074 17.6854 81.5278 16.8976 77.9741 17.0409C73.3402 17.2199 66.2676 18.7237 66.2676 24.4526C66.2676 29.3937 70.3439 31.1123 75.6746 31.1123C79.1935 31.1123 83.4092 30.1098 86.6843 27.8541C86.4055 28.8208 85.9874 29.7875 85.43 30.7901H93.1646C93.1646 30.7901 95.3596 25.7058 94.5931 20.0127C93.6176 12.5294 89.2276 9.27114 82.4685 8.66246ZM87.5204 22.9487L87.4508 23.7365C87.4508 23.7723 87.4508 23.7723 87.4508 23.8081C85.2209 24.8822 81.7717 25.6699 79.0193 25.5983C76.0927 25.5267 74.4551 25.0613 74.4551 23.8797C74.4551 22.6265 76.6153 21.7314 79.8555 21.7314C82.6427 21.7314 85.3951 22.2326 87.5204 22.8771C87.5204 22.9129 87.5204 22.9487 87.5204 22.9487Z" fill="#FAC15A"/>
<path d="M53.8643 12.8508C57.1045 20.3341 56.3728 29.7151 52.3313 33.224C49.4743 35.6946 44.2831 36.2316 39.5447 35.2291L37.9072 42.2827C39.4054 42.605 40.9384 42.8198 42.5062 42.9272C47.802 43.2853 53.3068 42.3543 57.1393 39.0244C64.1423 32.9376 64.6997 20.4057 61.146 11.168L53.8643 12.8508Z" fill="#FAC15A"/>
<path d="M98.6705 0.0351562C95.7439 0.0351562 93.3398 2.50574 93.3398 5.51338C93.3398 8.52102 95.7439 10.9916 98.6705 10.9916C101.597 10.9916 104.001 8.52102 104.001 5.51338C104.001 2.50574 101.632 0.0351562 98.6705 0.0351562ZM98.6705 9.98903C96.3013 9.98903 94.3502 7.98393 94.3502 5.54917C94.3502 3.11442 96.3013 1.10931 98.6705 1.10931C101.04 1.10931 102.991 3.11442 102.991 5.54917C102.991 7.98393 101.074 9.98903 98.6705 9.98903Z" fill="#FAC15A"/>
<path d="M99.8208 3.7597C99.4375 3.7597 99.2285 3.79551 99.1239 3.83132C99.1239 3.7239 99.1588 3.50907 99.1588 3.22263V2.68555H98.671H98.1832V3.22263C98.1832 3.50907 98.1832 3.7239 98.2181 3.83132C98.1136 3.79551 97.9045 3.7597 97.5213 3.7597H95.9883V4.76225H96.4064C96.929 4.76225 97.2425 4.69064 97.5909 4.40419L97.6955 4.51161C97.138 4.72644 96.5806 5.37094 96.5806 6.19446C96.5806 7.37603 97.4864 8.23536 98.7059 8.23536C99.9253 8.23536 100.831 7.37603 100.831 6.19446C100.831 5.37094 100.309 4.76224 99.7162 4.51161L99.8208 4.40419C100.169 4.69064 100.483 4.76225 101.005 4.76225H101.423V3.7597H99.8208ZM99.8556 6.08704C99.8556 6.76734 99.3678 7.23282 98.671 7.23282C97.9742 7.23282 97.4864 6.76734 97.4864 6.08704C97.4864 5.40675 97.9742 4.94127 98.671 4.94127C99.3678 4.94127 99.8556 5.40675 99.8556 6.08704Z" fill="#FAC15A"/>
</svg>
